<?xml version="1.0" standalone="no"?>
<!DOCTYPE svg PUBLIC "-//W3C//DTD SVG 20010904//EN"
 "http://www.w3.org/TR/2001/REC-SVG-20010904/DTD/svg10.dtd">
<svg version="1.0" xmlns="http://www.w3.org/2000/svg"
 width="280.000000pt" height="180.000000pt" viewBox="0 0 280.000000 180.000000"
 preserveAspectRatio="xMidYMid meet">
<metadata>
Created by potrace 1.16, written by Peter Selinger 2001-2019
</metadata>
<g transform="translate(0.000000,180.000000) scale(0.100000,-0.100000)"
fill="#000000" stroke="none">
<path d="M463 1656 c-234 -59 -284 -328 -85 -455 26 -16 79 -42 117 -57 146
-57 190 -107 183 -203 -5 -69 -27 -103 -86 -132 -62 -30 -193 -24 -274 13
l-56 26 -11 -43 c-15 -61 -15 -60 26 -78 89 -39 239 -49 331 -22 119 36 195
137 194 260 -1 126 -62 198 -228 270 -160 68 -197 105 -197 193 0 77 61 130
161 139 51 4 85 -2 178 -32 17 -5 22 0 32 33 17 57 17 59 -35 76 -69 22 -188
28 -250 12z"/>
<path d="M2151 1659 c-66 -13 -127 -46 -166 -91 -45 -54 -58 -96 -53 -176 7
-114 61 -172 225 -242 152 -65 197 -112 196 -201 -2 -104 -73 -159 -202 -159
-51 1 -94 7 -131 21 -30 11 -62 22 -71 25 -11 4 -19 -5 -27 -34 -7 -22 -12
-44 -12 -50 0 -6 26 -21 58 -33 48 -19 77 -23 177 -24 105 0 126 3 172 24 174
78 216 308 78 430 -35 30 -113 73 -185 101 -63 25 -130 71 -145 101 -35 67 -8
162 56 195 63 32 139 29 265 -11 19 -6 24 0 37 40 l16 46 -36 15 c-72 31 -169
39 -252 23z"/>
<path d="M1140 1601 c0 -6 4 -13 10 -16 6 -3 7 1 4 9 -7 18 -14 21 -14 7z"/>
<path d="M1338 1573 c7 -3 16 -2 19 1 4 3 -2 6 -13 5 -11 0 -14 -3 -6 -6z"/>
<path d="M1322 1528 c-19 -19 -14 -46 12 -63 29 -19 54 -10 62 21 11 43 -42
74 -74 42z"/>
<path d="M1364 1317 c3 -48 0 -67 -8 -64 -7 2 -10 24 -8 58 l2 54 -15 -35 c-9
-19 -23 -42 -31 -51 -13 -15 -13 -21 -1 -52 14 -31 19 -34 49 -32 18 2 38 4
44 4 6 1 15 16 21 35 9 29 8 37 -8 53 -10 10 -25 36 -34 58 l-15 40 4 -68z"/>
<path d="M1333 1173 c15 -2 39 -2 55 0 15 2 2 4 -28 4 -30 0 -43 -2 -27 -4z"/>
<path d="M1310 1015 l0 -135 50 0 50 0 0 135 0 135 -50 0 -50 0 0 -135z"/>
<path d="M1217 464 c-8 -8 1 -24 14 -24 5 0 9 7 9 15 0 15 -12 20 -23 9z"/>
<path d="M1970 455 c0 -8 6 -14 12 -12 9 1 12 -13 10 -50 -3 -34 0 -53 7 -53
6 0 11 11 11 24 0 13 3 38 6 55 5 24 3 31 -10 31 -9 0 -16 5 -16 10 0 6 -4 10
-10 10 -5 0 -10 -7 -10 -15z"/>
<path d="M2290 454 c0 -8 5 -12 10 -9 6 3 10 10 10 16 0 5 -4 9 -10 9 -5 0
-10 -7 -10 -16z"/>
<path d="M1140 445 c0 -9 5 -15 11 -13 6 2 11 8 11 13 0 5 -5 11 -11 13 -6 2
-11 -4 -11 -13z"/>
<path d="M2101 416 c-27 -61 -36 -94 -23 -81 17 16 62 125 52 125 -5 0 -18
-20 -29 -44z"/>
<path d="M417 438 c-20 -16 -13 -98 9 -98 17 0 17 8 3 49 -9 24 -9 35 0 44 8
8 11 5 11 -12 0 -19 3 -21 14 -11 16 13 11 40 -8 40 -7 0 -20 -6 -29 -12z"/>
<path d="M503 428 c3 -11 -1 -34 -9 -49 -18 -35 -18 -39 0 -39 8 0 16 10 18
22 4 31 26 34 34 4 7 -28 24 -36 24 -12 0 26 -12 46 -27 46 -8 0 -11 5 -8 10
3 6 1 10 -4 10 -6 0 -11 7 -11 15 0 8 -5 15 -11 15 -7 0 -9 -9 -6 -22z"/>
<path d="M645 439 c-4 -6 -4 -13 0 -17 4 -4 10 -1 12 6 3 6 9 12 15 12 6 0 8
-7 4 -15 -3 -9 0 -15 10 -15 13 0 12 -4 -1 -31 -19 -35 -12 -52 9 -23 19 24
27 54 15 54 -5 0 -9 9 -9 20 0 15 -7 20 -24 20 -14 0 -28 -5 -31 -11z"/>
<path d="M1080 426 c0 -13 -5 -37 -10 -52 -12 -30 -4 -46 11 -24 8 11 12 12
16 3 7 -18 23 -16 23 2 0 8 -7 15 -16 15 -11 0 -14 6 -8 23 11 35 10 49 -3 54
-8 3 -13 -5 -13 -21z"/>
<path d="M1183 435 c4 -8 2 -17 -3 -20 -13 -8 -13 -75 -1 -75 6 0 11 17 13 37
4 52 28 56 28 4 0 -50 14 -55 17 -6 2 25 -3 40 -19 55 -25 23 -43 26 -35 5z"/>
<path d="M1265 439 c-4 -6 -4 -13 0 -17 4 -4 10 -1 12 6 3 6 9 12 15 12 6 0 8
-7 4 -15 -3 -9 0 -15 8 -15 15 0 28 24 19 34 -10 10 -51 7 -58 -5z"/>
<path d="M1458 425 c-20 -26 -24 -55 -8 -55 6 0 10 11 10 25 0 15 6 25 14 25
18 0 25 -20 19 -53 -4 -19 -1 -27 9 -27 17 0 14 50 -4 88 -14 28 -19 27 -40
-3z"/>
<path d="M1670 435 c-8 -9 -9 -15 -2 -15 6 0 14 5 17 10 10 15 28 12 22 -4 -3
-8 -1 -16 5 -18 8 -3 8 -10 -1 -25 -13 -25 -14 -43 -3 -43 5 0 16 16 25 35 14
29 14 35 3 35 -9 0 -12 7 -9 20 4 16 0 20 -20 20 -13 0 -30 -7 -37 -15z"/>
<path d="M1785 440 c3 -5 -1 -20 -9 -32 -20 -29 -21 -68 -1 -68 9 0 12 6 9 15
-9 23 5 65 21 65 11 0 15 -11 15 -40 0 -22 5 -40 10 -40 19 0 11 75 -10 93
-22 18 -45 23 -35 7z"/>
<path d="M2166 435 c-17 -18 -23 -95 -7 -95 6 0 11 21 13 47 5 70 28 69 28 -1
0 -31 4 -56 9 -56 13 0 17 29 11 75 -6 44 -27 56 -54 30z"/>
<path d="M2316 428 c-9 -36 -7 -88 4 -88 6 0 10 8 10 18 0 9 3 34 6 55 7 40
-9 53 -20 15z"/>
<path d="M756 424 c-20 -20 -22 -84 -2 -84 25 0 46 12 46 26 0 8 -7 14 -15 14
-9 0 -12 -6 -9 -15 4 -8 1 -15 -5 -15 -15 0 -14 63 1 78 7 7 9 12 6 12 -4 0
-14 -7 -22 -16z"/>
<path d="M790 425 c0 -8 5 -15 10 -15 6 0 10 7 10 15 0 8 -4 15 -10 15 -5 0
-10 -7 -10 -15z"/>
<path d="M820 425 c0 -8 5 -15 10 -15 6 0 10 7 10 15 0 8 -4 15 -10 15 -5 0
-10 -7 -10 -15z"/>
<path d="M888 429 c-23 -13 -26 -89 -4 -89 9 0 12 7 9 20 -3 11 -2 31 1 46 6
22 11 25 31 20 14 -4 25 -2 25 4 0 13 -40 12 -62 -1z"/>
<path d="M982 428 c-22 -22 -14 -40 16 -36 33 4 47 48 15 48 -11 0 -24 -5 -31
-12z m24 -25 c-10 -10 -19 5 -10 18 6 11 8 11 12 0 2 -7 1 -15 -2 -18z"/>
<path d="M1050 420 c0 -11 4 -20 9 -20 6 0 9 9 8 20 -1 11 -5 20 -9 20 -4 0
-8 -9 -8 -20z"/>
<path d="M1563 425 c-11 -23 -3 -67 14 -72 7 -3 9 3 6 15 -3 14 1 22 16 27 12
3 21 15 21 26 0 26 -16 24 -25 -3 l-7 -23 -7 25 c-7 24 -8 24 -18 5z"/>
<path d="M1305 380 c-18 -34 -18 -40 -5 -40 8 0 40 51 40 65 0 16 -22 1 -35
-25z"/>
<path d="M1950 394 c0 -8 5 -12 10 -9 6 3 10 10 10 16 0 5 -4 9 -10 9 -5 0
-10 -7 -10 -16z"/>
<path d="M2035 400 c3 -5 10 -10 16 -10 5 0 9 5 9 10 0 6 -7 10 -16 10 -8 0
-12 -4 -9 -10z"/>
<path d="M2270 394 c0 -8 5 -12 10 -9 6 3 10 10 10 16 0 5 -4 9 -10 9 -5 0
-10 -7 -10 -16z"/>
<path d="M2360 400 c0 -5 5 -10 10 -10 6 0 10 5 10 10 0 6 -4 10 -10 10 -5 0
-10 -4 -10 -10z"/>
<path d="M1618 359 c-10 -10 -15 -19 -12 -19 13 0 44 21 44 30 0 15 -13 11
-32 -11z"/>
<path d="M2240 356 c0 -9 5 -16 10 -16 6 0 10 4 10 9 0 6 -4 13 -10 16 -5 3
-10 -1 -10 -9z"/>
<path d="M820 350 c0 -5 5 -10 10 -10 6 0 10 5 10 10 0 6 -4 10 -10 10 -5 0
-10 -4 -10 -10z"/>
<path d="M920 350 c0 -5 7 -10 15 -10 8 0 15 5 15 10 0 6 -7 10 -15 10 -8 0
-15 -4 -15 -10z"/>
<path d="M590 340 c0 -5 5 -10 10 -10 6 0 10 5 10 10 0 6 -4 10 -10 10 -5 0
-10 -4 -10 -10z"/>
<path d="M1540 335 c0 -8 5 -15 10 -15 6 0 10 7 10 15 0 8 -4 15 -10 15 -5 0
-10 -7 -10 -15z"/>
<path d="M101 236 c-17 -21 -3 -44 35 -56 19 -7 33 -17 31 -23 -5 -15 -47 -22
-47 -8 0 6 -7 11 -15 11 -22 0 -18 -17 6 -30 27 -15 59 -9 73 13 14 22 -2 49
-34 57 -13 3 -26 12 -28 19 -4 11 4 12 34 7 34 -7 36 -6 25 8 -16 20 -64 21
-80 2z"/>
<path d="M320 185 c0 -69 17 -90 22 -27 2 25 8 37 18 37 10 0 16 -12 18 -37 4
-50 22 -49 22 1 0 42 -18 65 -44 55 -12 -4 -16 0 -16 15 0 12 -4 21 -10 21 -6
0 -10 -28 -10 -65z"/>
<path d="M650 185 c0 -37 4 -65 10 -65 6 0 10 28 10 65 0 37 -4 65 -10 65 -6
0 -10 -28 -10 -65z"/>
<path d="M862 230 c-9 -25 -3 -110 9 -110 5 0 9 15 9 34 0 19 5 38 10 41 8 5
8 11 0 20 -8 10 -7 16 7 24 16 9 16 10 -5 11 -14 0 -26 -8 -30 -20z"/>
<path d="M970 185 c0 -37 4 -65 10 -65 6 0 10 28 10 65 0 37 -4 65 -10 65 -6
0 -10 -28 -10 -65z"/>
<path d="M1132 233 c-9 -17 -7 -69 4 -102 9 -27 24 4 25 54 1 28 7 53 13 57 6
5 2 8 -11 8 -12 0 -26 -8 -31 -17z"/>
<path d="M1690 240 c0 -5 7 -10 15 -10 8 0 15 5 15 10 0 6 -7 10 -15 10 -8 0
-15 -4 -15 -10z"/>
<path d="M2021 236 c-17 -21 -3 -44 35 -56 19 -7 33 -17 31 -23 -5 -17 -38
-21 -47 -7 -4 7 -13 11 -20 8 -22 -7 20 -39 48 -36 53 6 55 66 2 78 -13 3 -26
12 -28 19 -4 11 4 12 34 7 34 -7 36 -6 25 8 -16 20 -64 21 -80 2z"/>
<path d="M2240 240 c0 -5 5 -10 10 -10 6 0 10 5 10 10 0 6 -4 10 -10 10 -5 0
-10 -4 -10 -10z"/>
<path d="M1633 220 c-8 -12 -9 -21 -3 -25 6 -4 10 -12 9 -18 -4 -32 2 -57 14
-57 10 0 14 57 8 113 -2 13 -16 7 -28 -13z"/>
<path d="M226 204 c-9 -8 -16 -24 -16 -34 0 -19 25 -50 40 -50 17 0 40 12 40
21 0 5 -11 7 -24 3 -28 -7 -40 8 -31 37 5 16 12 19 31 15 26 -7 33 8 8 18 -24
9 -31 8 -48 -10z"/>
<path d="M440 202 c-30 -24 -21 -69 15 -78 47 -12 78 43 44 77 -24 24 -31 24
-59 1z m45 -33 c0 -28 -29 -38 -39 -13 -7 19 11 47 28 41 6 -2 11 -14 11 -28z"/>
<path d="M550 200 c-11 -11 -20 -26 -20 -34 0 -20 28 -46 50 -46 17 0 50 34
50 52 0 11 -38 48 -50 48 -5 0 -19 -9 -30 -20z m45 -31 c0 -30 -30 -38 -38
-10 -5 21 11 43 28 38 5 -2 10 -14 10 -28z"/>
<path d="M759 199 c-30 -30 -11 -78 32 -79 18 0 49 30 49 48 0 15 -36 52 -50
52 -5 0 -19 -9 -31 -21z m49 -32 c3 -22 -1 -27 -17 -27 -15 0 -21 6 -21 23 0
46 33 49 38 4z"/>
<path d="M1048 212 c-26 -3 -28 -7 -28 -48 0 -53 18 -59 22 -7 2 27 8 39 21
41 14 3 17 -4 17 -37 0 -23 5 -41 10 -41 15 0 12 87 -2 92 -7 2 -25 2 -40 0z"/>
<path d="M1208 209 c-25 -14 -23 -65 2 -79 51 -27 95 36 50 72 -25 21 -29 21
-52 7z m47 -29 c8 -24 -1 -40 -21 -40 -17 0 -28 24 -20 45 8 22 34 18 41 -5z"/>
<path d="M1300 172 c0 -29 5 -52 10 -52 6 0 10 11 10 24 0 35 10 56 27 56 8 0
11 5 8 10 -5 8 -11 8 -19 1 -9 -7 -16 -7 -24 1 -9 9 -12 0 -12 -40z"/>
<path d="M1370 168 c0 -57 17 -65 22 -10 2 25 8 37 18 37 10 0 16 -12 18 -37
4 -49 20 -49 24 -1 4 50 26 55 30 6 3 -42 21 -48 26 -9 6 48 -10 60 -77 61
l-61 0 0 -47z"/>
<path d="M1539 204 c-11 -13 -9 -14 14 -9 17 5 27 3 27 -4 0 -6 -11 -14 -26
-17 -18 -5 -24 -12 -22 -28 2 -17 10 -21 41 -22 36 -1 37 -1 37 37 0 28 -5 41
-19 49 -27 14 -36 13 -52 -6z m45 -49 c-4 -8 -12 -15 -20 -15 -17 0 -18 17 -1
23 22 9 27 7 21 -8z"/>
<path d="M1758 209 c-26 -15 -23 -65 3 -80 34 -18 69 3 69 40 0 42 -36 62 -72
40z m47 -39 c0 -16 -6 -26 -18 -28 -19 -4 -32 20 -23 44 9 25 41 13 41 -16z"/>
<path d="M1859 213 c0 -2 -1 -21 -1 -43 -1 -51 16 -57 20 -7 3 30 7 37 20 35
12 -2 18 -15 20 -41 2 -20 7 -37 13 -37 14 0 11 78 -3 87 -12 7 -67 12 -69 6z"/>
<path d="M2146 204 c-9 -8 -16 -24 -16 -34 0 -19 25 -50 40 -50 17 0 40 12 40
21 0 5 -11 7 -24 3 -26 -6 -40 14 -29 42 4 11 13 14 29 10 27 -7 33 8 8 18
-24 9 -31 8 -48 -10z"/>
<path d="M2296 204 c-36 -36 -4 -94 44 -79 29 9 25 27 -4 19 -13 -3 -27 -1
-30 5 -5 7 4 11 23 11 24 0 31 4 31 20 0 10 -9 24 -19 30 -25 13 -27 13 -45
-6z m44 -14 c0 -5 -9 -10 -21 -10 -11 0 -17 5 -14 10 3 6 13 10 21 10 8 0 14
-4 14 -10z"/>
<path d="M2413 213 c-20 -4 -23 -11 -23 -49 0 -54 18 -59 22 -6 2 25 8 37 18
37 10 0 16 -12 18 -37 4 -53 22 -48 22 6 0 31 -5 46 -16 50 -9 3 -16 5 -17 5
-1 -1 -12 -4 -24 -6z"/>
<path d="M2509 199 c-14 -14 -18 -27 -13 -42 12 -39 51 -50 75 -21 12 15 10
16 -19 10 -31 -7 -32 -6 -32 24 0 29 2 32 25 26 27 -7 35 8 9 18 -22 8 -22 8
-45 -15z"/>
<path d="M2607 202 c-34 -37 -9 -90 36 -78 15 3 27 11 27 16 0 6 -11 8 -24 4
-13 -3 -27 -1 -30 5 -5 7 5 11 28 11 41 0 45 11 16 40 -25 25 -32 25 -53 2z
m47 -11 c3 -5 0 -11 -8 -14 -15 -6 -26 1 -26 15 0 11 27 10 34 -1z"/>
<path d="M1694 196 c-8 -21 -1 -66 11 -69 6 -1 11 17 12 41 1 41 -12 57 -23
28z"/>
<path d="M2240 165 c0 -25 5 -45 10 -45 6 0 10 20 10 45 0 25 -4 45 -10 45 -5
0 -10 -20 -10 -45z"/>
</g>
</svg>
